<svg xmlns="http://www.w3.org/2000/svg" width="160" height="24" viewBox="0 0 160 24" fill="none">
<path d="M45.8529 0L50.4018 7.00591L58.4705 9.16716L53.2131 15.6584L53.651 24L45.8529 21.0059L38.0549 24L38.4927 15.6584L33.2354 9.16716L41.3041 7.00591L45.8529 0Z" fill="#F85559"/>
<path d="M45.9038 0L50.4527 7.00591L58.5214 9.16716L53.264 15.6584L53.7018 24L45.9038 21.0059V0Z" fill="#FBC0A8"/>
<path d="M12.6176 0L17.1664 7.00591L25.2351 9.16716L19.9778 15.6584L20.4156 24L12.6176 21.0059L4.81952 24L5.25735 15.6584L0 9.16716L8.06871 7.00591L12.6176 0Z" fill="#F85559"/>
<path d="M79.6176 0L84.1664 7.00591L92.2351 9.16716L86.9778 15.6584L87.4156 24L79.6176 21.0059L71.8195 24L72.2574 15.6584L67 9.16716L75.0687 7.00591L79.6176 0Z" fill="#FBC0A8"/>
<path d="M146.618 0L151.166 7.00591L159.235 9.16716L153.978 15.6584L154.416 24L146.618 21.0059L138.82 24L139.257 15.6584L134 9.16716L142.069 7.00591L146.618 0Z" fill="#FBC0A8"/>
<path d="M113.618 0L118.166 7.00591L126.235 9.16716L120.978 15.6584L121.416 24L113.618 21.0059L105.82 24L106.257 15.6584L101 9.16716L109.069 7.00591L113.618 0Z" fill="#FBC0A8"/>
</svg>